<svg xmlns="http://www.w3.org/2000/svg" width="31" height="35" fill="none" xmlns:v="https://vecta.io/nano"><path d="M26.25 19.939v-3.102H24v3.58a1.14 1.14 0 0 0 .082.457c.058.144.145.273.255.378l3.038 3.222v1.909H2.625v-1.909l3.038-3.222c.11-.105.197-.234.255-.378s.086-.3.082-.457v-5.966c0-2.532.948-4.959 2.636-6.75S12.613 4.905 15 4.905c1.582 0 3.136.449 4.5 1.301V3.473c-1.07-.508-2.209-.83-3.375-.955V.133h-2.25v2.386c-2.77.335-5.329 1.733-7.194 3.931s-2.908 5.044-2.931 8.001v5.489L.712 23.161c-.11.105-.197.234-.255.378s-.086.3-.082.457v3.579c-.01.159.012.319.065.469a1.13 1.13 0 0 0 .242.398c.107.113.235.2.376.257a1 1 0 0 0 .442.069h7.875c0 1.582.593 3.1 1.648 4.219s2.486 1.747 3.977 1.747 2.923-.629 3.977-1.747 1.648-2.636 1.648-4.219H28.5a1 1 0 0 0 .442-.069c.141-.056.269-.144.376-.257a1.13 1.13 0 0 0 .242-.398c.053-.149.075-.309.065-.469v-3.579c.004-.157-.024-.313-.082-.457a1.09 1.09 0 0 0-.255-.378l-3.038-3.222zM15 32.349a3.28 3.28 0 0 1-2.386-1.048c-.633-.671-.989-1.582-.989-2.531h6.75c0 .949-.356 1.86-.988 2.531A3.28 3.28 0 0 1 15 32.349z" fill="url(#A)"/><path d="M26.25 13.258c2.485 0 4.5-2.137 4.5-4.773s-2.015-4.773-4.5-4.773-4.5 2.137-4.5 4.773 2.015 4.773 4.5 4.773z" fill="url(#B)"/><defs><linearGradient id="A" x1=".373" y1=".133" x2="26.242" y2=".133" gradientUnits="userSpaceOnUse"><stop stop-color="#fe5c28"/><stop offset="1" stop-color="#ff8b36" stop-opacity=".9"/></linearGradient><linearGradient id="B" x1="21.75" y1="3.712" x2="29.709" y2="3.712" gradientUnits="userSpaceOnUse"><stop stop-color="#fe5c28"/><stop offset="1" stop-color="#ff8b36" stop-opacity=".9"/></linearGradient></defs></svg>