<svg xmlns="http://www.w3.org/2000/svg" width="38" height="40" fill="#dc1e1e" xmlns:v="https://vecta.io/nano"><path d="M19 1.25C9.163 1.25 1.188 9.645 1.188 20S9.163 38.75 19 38.75 36.813 30.355 36.813 20 28.837 1.25 19 1.25zM2.823 22.304l5.087 1.332a8.78 8.78 0 0 0-.043.782 12.76 12.76 0 0 0 1.43 5.894l-2.561 1.014c-2.12-2.536-3.481-5.675-3.912-9.023h0zM19 37.188c-4.068 0-7.791-1.578-10.653-4.179l2.123-.853c2.044 2.641 5.107 4.324 8.53 4.324s6.486-1.683 8.53-4.324l2.123.853c-2.861 2.6-6.583 4.179-10.653 4.179zM9.351 24.419c0-3.619 2.218-4.346 5.797-4.346.656 0 1.321.024 1.973.047a51.01 51.01 0 0 0 3.76 0l1.972-.047c3.58 0 5.797.727 5.797 4.346 0 5.789-4.329 10.498-9.65 10.498s-9.649-4.709-9.649-10.498zm21.915 6.908l-2.561-1.014a12.77 12.77 0 0 0 1.43-5.894 8.76 8.76 0 0 0-.043-.782l5.086-1.332c-.429 3.348-1.79 6.488-3.912 9.023h0zm-1.699-9.807c-1.385-3-4.976-3.009-6.715-3.009-.671 0-1.353.024-2.022.048a49.59 49.59 0 0 1-3.659 0c-.674-.028-1.349-.044-2.024-.048-1.739 0-5.329.01-6.714 3.009l-5.761-1.499V20a17.71 17.71 0 0 1 3.007-9.921c.218.314.579.591.731.45.949-.843 2.063-1.456 3.263-1.795a8.04 8.04 0 0 1 3.678-.163c.344.071.648-1.263.231-1.347-2.326-.435-4.722.035-6.743 1.323C9.832 5.03 14.173 2.813 19 2.813c4.913 0 9.324 2.299 12.319 5.926a9.34 9.34 0 0 0-6.901-1.421c-.417.084-.115 1.419.23 1.347 2.475-.467 5.021.25 6.942 1.958.161.147.553-.164.765-.495 1.938 2.887 2.977 6.337 2.974 9.872v.021l-5.761 1.499m-7.55-8.987c-.454.165-.796.185-.737.46 1.193 5.483 6.059 6.854 9.698 2.736.181-.208-.106-.405-.42-.789-2.934 1.322-6.806.031-8.541-2.407zm-6.035-.001c-1.912 2.688-5.879 3.607-8.54 2.409-.314.382-.602.579-.421.787 3.639 4.12 8.504 2.747 9.7-2.736.057-.275-.284-.296-.739-.461"/></svg>