<svg xmlns="http://www.w3.org/2000/svg" width="14" height="17" fill="none" xmlns:v="https://vecta.io/nano"><path d="M3.111 7.611h1.556v1.667H3.111V7.611zM14 3.444v11.667c0 .917-.7 1.667-1.556 1.667H1.556c-.413 0-.808-.176-1.1-.488A1.73 1.73 0 0 1 0 15.111L.008 3.444c0-.917.684-1.667 1.548-1.667h.778V.111H3.89v1.667h6.222V.111h1.556v1.667h.778c.856 0 1.556.75 1.556 1.667zM1.556 5.111h10.889V3.444H1.556v1.667zm10.889 10V6.778H1.556v8.333h10.889zM9.333 9.278h1.556V7.611H9.333v1.667zm-3.111 0h1.556V7.611H6.222v1.667z" fill="#7688a4"/></svg>