<svg xmlns="http://www.w3.org/2000/svg" width="38" height="39" fill="none" xmlns:v="https://vecta.io/nano"><path d="M0 19.29a19.5 19.5 0 0 0 3.202 10.717c2.088 3.172 5.055 5.645 8.527 7.105s7.292 1.842 10.978 1.098 7.071-2.581 9.728-5.279 4.467-6.135 5.2-9.877.357-7.62-1.081-11.145a19.23 19.23 0 0 0-6.998-8.657C26.431 1.131 22.758 0 19 0 13.961 0 9.128 2.032 5.565 5.65S0 14.174 0 19.29zm31.418 10.678L8.482 6.683a16.13 16.13 0 0 1 11.161-3.809c4.058.188 7.901 1.909 10.773 4.826s4.568 6.817 4.753 10.938-1.153 8.162-3.752 11.332zM8.469 31.911c-3.287-2.834-5.332-6.875-5.688-11.237s1.006-8.69 3.788-12.035l22.922 23.272a16.14 16.14 0 0 1-10.511 3.905 16.14 16.14 0 0 1-10.511-3.905z" fill="#000"/></svg>