<svg xmlns="http://www.w3.org/2000/svg" width="300" height="21" fill="currenColor" xmlns:v="https://vecta.io/nano"><path d="M1.66 20c-.187 0-.355-.065-.504-.196-.131-.149-.196-.317-.196-.504V1.1c0-.205.065-.373.196-.504C1.305.465 1.473.4 1.66.4h2.968c.467 0 .784.177.952.532l6.832 10.752V1.1c0-.205.065-.373.196-.504.149-.131.317-.196.504-.196h3.36c.205 0 .373.065.504.196s.196.299.196.504v18.172a.78.78 0 0 1-.196.532c-.131.131-.299.196-.504.196h-2.996a1 1 0 0 1-.924-.532L5.72 9.108V19.3c0 .187-.065.355-.196.504-.131.131-.299.196-.504.196H1.66zm18.305 0c-.149 0-.289-.056-.42-.168-.112-.131-.168-.271-.168-.42 0-.112.009-.196.028-.252l6.58-17.976c.056-.224.177-.411.364-.56S26.778.4 27.077.4h4.144c.299 0 .541.075.728.224s.308.336.364.56l6.552 17.976.056.252c0 .149-.065.289-.196.42a.57.57 0 0 1-.42.168h-3.444c-.448 0-.747-.196-.896-.588l-1.092-2.856h-7.476l-1.064 2.856c-.149.392-.457.588-.924.588h-3.444zm11.788-7.476l-2.604-7.392-2.604 7.392h5.208zM41.828 20c-.187 0-.355-.065-.504-.196-.131-.149-.196-.317-.196-.504V1.1c0-.205.065-.373.196-.504.149-.131.317-.196.504-.196h3.024c.448 0 .775.205.98.616l4.928 8.82 4.928-8.82c.205-.411.532-.616.98-.616h2.996c.205 0 .373.065.504.196a.64.64 0 0 1 .224.504v18.2a.64.64 0 0 1-.224.504c-.131.131-.299.196-.504.196h-3.332a.78.78 0 0 1-.532-.196c-.131-.131-.196-.299-.196-.504V8.8l-3.136 5.852c-.243.429-.569.644-.98.644h-1.456c-.243 0-.439-.056-.588-.168s-.28-.271-.392-.476L45.888 8.8v10.5c0 .187-.065.355-.196.504-.131.131-.299.196-.504.196h-3.36zm21.368 0c-.149 0-.289-.056-.42-.168-.112-.131-.168-.271-.168-.42 0-.112.009-.196.028-.252l6.58-17.976c.056-.224.177-.411.364-.56S70.009.4 70.308.4h4.144c.299 0 .541.075.728.224s.308.336.364.56l6.552 17.976.056.252c0 .149-.065.289-.196.42a.57.57 0 0 1-.42.168h-3.444c-.448 0-.747-.196-.896-.588l-1.092-2.856h-7.476l-1.064 2.856c-.149.392-.457.588-.924.588h-3.444zm11.788-7.476L72.38 5.132l-2.604 7.392h5.208zM85.058 20c-.187 0-.355-.065-.504-.196-.131-.149-.196-.317-.196-.504V1.1c0-.205.065-.373.196-.504.149-.131.317-.196.504-.196h2.968c.467 0 .784.177.952.532l6.832 10.752V1.1c0-.205.065-.373.196-.504.149-.131.317-.196.504-.196h3.36a.68.68 0 0 1 .504.196.68.68 0 0 1 .196.504v18.172a.78.78 0 0 1-.196.532.68.68 0 0 1-.504.196h-2.996a1 1 0 0 1-.924-.532l-6.832-10.36V19.3c0 .187-.065.355-.196.504-.131.131-.299.196-.504.196h-3.36zm27.517.28c-2.688 0-4.788-.653-6.3-1.96-1.512-1.325-2.314-3.201-2.408-5.628l-.028-2.576.028-2.576c.094-2.371.906-4.2 2.436-5.488 1.55-1.288 3.64-1.932 6.272-1.932 1.774 0 3.314.289 4.62.868 1.326.579 2.334 1.316 3.024 2.212.71.896 1.083 1.82 1.12 2.772a.53.53 0 0 1-.196.42.57.57 0 0 1-.42.168h-4.088c-.186 0-.336-.028-.448-.084s-.205-.159-.28-.308c-.242-.541-.625-1.008-1.148-1.4-.522-.411-1.25-.616-2.184-.616-2.221 0-3.388 1.176-3.5 3.528l-.028 2.436.028 2.436c.112 2.464 1.307 3.696 3.584 3.696 1.102 0 1.979-.28 2.632-.84.672-.579 1.008-1.456 1.008-2.632v-.532h-2.632c-.205 0-.373-.065-.504-.196-.13-.149-.196-.327-.196-.532V9.444c0-.205.066-.373.196-.504a.64.64 0 0 1 .504-.224h7.056c.206 0 .374.075.504.224a.68.68 0 0 1 .196.504v3.192c0 1.587-.364 2.959-1.092 4.116-.728 1.139-1.764 2.016-3.108 2.632-1.325.597-2.874.896-4.648.896zm10.503-.28c-.149 0-.289-.056-.42-.168-.112-.131-.168-.271-.168-.42 0-.112.01-.196.028-.252l6.58-17.976a1.02 1.02 0 0 1 .364-.56c.187-.149.43-.224.728-.224h4.144c.299 0 .542.075.728.224s.308.336.364.56l6.552 17.976.056.252c0 .149-.065.289-.196.42a.57.57 0 0 1-.42.168h-3.444c-.448 0-.746-.196-.896-.588l-1.092-2.856h-7.476l-1.064 2.856c-.149.392-.457.588-.924.588h-3.444zm11.788-7.476l-2.604-7.392-2.604 7.392h5.208zM144.941 20c-.186 0-.354-.065-.504-.196a.75.75 0 0 1-.196-.504V1.1c0-.205.066-.373.196-.504.15-.131.318-.196.504-.196h2.968c.467 0 .784.177.952.532l6.832 10.752V1.1c0-.205.066-.373.196-.504.15-.131.318-.196.504-.196h3.36a.68.68 0 0 1 .504.196.68.68 0 0 1 .196.504v18.172a.78.78 0 0 1-.196.532.68.68 0 0 1-.504.196h-2.996a1 1 0 0 1-.924-.532l-6.832-10.36V19.3c0 .187-.065.355-.196.504a.68.68 0 0 1-.504.196h-3.36zm20.125 0c-.186 0-.354-.065-.504-.196a.75.75 0 0 1-.196-.504V1.1c0-.205.066-.373.196-.504.15-.131.318-.196.504-.196h3.696a.68.68 0 0 1 .504.196.68.68 0 0 1 .196.504v14.672h8.484c.206 0 .374.075.504.224a.68.68 0 0 1 .196.504v2.8c0 .187-.065.355-.196.504a.68.68 0 0 1-.504.196h-12.88zm16.707 0c-.186 0-.354-.065-.504-.196a.75.75 0 0 1-.196-.504V1.1c0-.205.066-.373.196-.504.15-.131.318-.196.504-.196h3.752a.68.68 0 0 1 .504.196c.15.131.224.299.224.504v18.2c0 .205-.074.373-.224.504a.68.68 0 0 1-.504.196h-3.752zm9.078 0c-.186 0-.354-.065-.504-.196a.75.75 0 0 1-.196-.504V1.1c0-.205.066-.373.196-.504.15-.131.318-.196.504-.196h3.528a.68.68 0 0 1 .504.196.68.68 0 0 1 .196.504v6.216l5.18-6.384c.224-.355.588-.532 1.092-.532h4.032a.53.53 0 0 1 .42.196c.112.112.168.243.168.392a.64.64 0 0 1-.084.336l-6.72 8.456 7.224 9.296c.075.075.112.187.112.336s-.056.289-.168.42a.57.57 0 0 1-.42.168h-4.172c-.448 0-.821-.187-1.12-.56l-5.544-6.916V19.3a.68.68 0 0 1-.7.7h-3.528zm18.567 0c-.187 0-.355-.065-.504-.196-.131-.149-.196-.317-.196-.504V1.1a.68.68 0 0 1 .196-.504c.149-.131.317-.196.504-.196h3.696c.205 0 .373.065.504.196s.196.299.196.504v14.672h8.484a.64.64 0 0 1 .504.224c.13.131.196.299.196.504v2.8a.75.75 0 0 1-.196.504c-.131.131-.299.196-.504.196h-12.88zm14.887 0c-.149 0-.289-.056-.42-.168-.112-.131-.168-.271-.168-.42 0-.112.009-.196.028-.252l6.58-17.976c.056-.224.177-.411.364-.56s.429-.224.728-.224h4.144c.299 0 .541.075.728.224s.308.336.364.56l6.552 17.976.056.252c0 .149-.065.289-.196.42a.57.57 0 0 1-.42.168h-3.444c-.448 0-.747-.196-.896-.588l-1.092-2.856h-7.476l-1.064 2.856c-.149.392-.457.588-.924.588h-3.444zm11.788-7.476l-2.604-7.392-2.604 7.392h5.208zM246.168 20c-.187 0-.355-.065-.504-.196-.131-.149-.196-.317-.196-.504V1.1a.68.68 0 0 1 .196-.504c.149-.131.317-.196.504-.196h7.616c2.445 0 4.349.56 5.712 1.68 1.381 1.101 2.072 2.669 2.072 4.704 0 1.307-.308 2.417-.924 3.332s-1.466 1.615-2.548 2.1l3.836 6.888c.056.112.084.215.084.308 0 .149-.066.289-.196.42-.112.112-.243.168-.392.168h-3.724c-.542 0-.924-.252-1.148-.756l-3.192-6.16h-2.856V19.3a.64.64 0 0 1-.224.504c-.131.131-.299.196-.504.196h-3.612zm7.56-10.892c.858 0 1.512-.205 1.96-.616.448-.429.672-1.017.672-1.764s-.224-1.335-.672-1.764c-.43-.448-1.083-.672-1.96-.672h-3.22v4.816h3.22zM264.743 20c-.205 0-.382-.065-.532-.196-.13-.131-.196-.299-.196-.504v-1.988c0-.56.234-1.017.7-1.372l2.912-2.856 3.864-3.052c.878-.728 1.54-1.391 1.988-1.988s.672-1.167.672-1.708c0-1.475-.728-2.212-2.184-2.212-.765 0-1.353.233-1.764.7-.41.448-.681 1.017-.812 1.708-.112.429-.429.644-.952.644h-3.5a.57.57 0 0 1-.588-.588c.038-1.195.364-2.287.98-3.276.635-1.008 1.522-1.801 2.66-2.38 1.158-.597 2.483-.896 3.976-.896 1.568 0 2.912.252 4.032.756s1.97 1.213 2.548 2.128.868 1.979.868 3.192c0 1.307-.41 2.501-1.232 3.584-.802 1.064-2.034 2.221-3.696 3.472l-2.576 2.604h7.196a.68.68 0 0 1 .504.196c.15.131.224.299.224.504V19.3c0 .205-.074.373-.224.504a.68.68 0 0 1-.504.196h-14.364zm27.09 0c-.186 0-.354-.065-.504-.196a.75.75 0 0 1-.196-.504v-3.164h-8.708c-.205 0-.373-.065-.504-.196s-.196-.299-.196-.504v-2.66c0-.28.103-.569.308-.868L290.181.876c.262-.317.607-.476 1.036-.476h4.088a.68.68 0 0 1 .504.196.68.68 0 0 1 .196.504v10.864h2.464a.67.67 0 0 1 .532.224c.131.131.196.289.196.476v2.772a.68.68 0 0 1-.7.7h-2.492V19.3c0 .187-.065.355-.196.504a.68.68 0 0 1-.504.196h-3.472zm-.588-7.84V5.552l-4.704 6.608h4.704z" fill="#133C82"/></svg>