<svg xmlns="http://www.w3.org/2000/svg" width="38" height="40" fill="#15ce3d" xmlns:v="https://vecta.io/nano"><path d="M19 1.25C9.163 1.25 1.188 9.645 1.188 20S9.163 38.75 19 38.75 36.813 30.355 36.813 20 28.837 1.25 19 1.25zm10.916 30.24c-1.426 1.501-3.119 2.69-4.983 3.501a14.67 14.67 0 0 1-5.877 1.224c-8.495 0-15.382-7.248-15.382-16.192S10.559 3.832 19.055 3.832s15.382 7.248 15.382 16.192a16.88 16.88 0 0 1-1.251 6.405l.038-.105a16.36 16.36 0 0 1-3.309 5.165v.002zM11.281 15.625h2.969v3.125h-2.969v-3.125zm12.469 0h2.969v3.125H23.75v-3.125zM25.107 24c-.46 1.216-1.255 2.259-2.283 2.994a6 6 0 0 1-3.485 1.131h-.678a5.99 5.99 0 0 1-3.469-1.116 6.48 6.48 0 0 1-2.285-2.966L12.893 24l-.095-.25h-2.559l.448 1.178c1.305 3.367 4.391 5.697 7.994 5.697h.638a8.31 8.31 0 0 0 4.802-1.539c1.42-1.004 2.523-2.43 3.17-4.097l.021-.06.448-1.178h-2.559l-.095.25z"/></svg>